<?xml version="1.0" encoding="utf-8"?>
<!-- Generator: Adobe Illustrator 24.1.2, SVG Export Plug-In . SVG Version: 6.00 Build 0)  -->
<svg version="1.1" id="Capa_1" xmlns="http://www.w3.org/2000/svg" xmlns:xlink="http://www.w3.org/1999/xlink" x="0px" y="0px"
	 viewBox="0 0 512 512" style="enable-background:new 0 0 512 512;" xml:space="preserve">
<style type="text/css">
	.st0{fill:#FCF5FB;}
</style>
<g>
	<path class="st0" d="M512,96.1c0-25.7-10-49.8-28.2-68C450.8-4.9,399.3-9,361.7,16.6C324.1-9,272.7-4.8,239.7,28.2
		c-12.5,12.5-21.1,27.7-25.3,44.4c-22.7-2.4-45.3,3.2-64.1,16.1c-37.6-25.6-89-21.5-122.1,11.5C10,118.3,0,142.5,0,168.1
		s10,49.8,28.2,68l87.5,87.5l-14.9,59.8c-1.1,4.5-0.1,9.2,2.7,12.9c2.8,3.6,7.2,5.8,11.8,5.8H136c2.2,23,9.4,37,15.9,49.5
		c6.7,12.9,12.5,24,13.2,46c0.3,8.1,6.9,14.5,15,14.5c0.2,0,0.3,0,0.5,0c8.3-0.3,14.8-7.2,14.5-15.5c-1-28.8-9.2-44.7-16.6-58.8
		c-5.5-10.7-10.5-20.2-12.4-35.7h19.1c4.6,0,9-2.1,11.8-5.8c2.8-3.6,3.8-8.4,2.7-12.9l-14.9-59.8l87.5-87.5
		c6.7-6.7,12.3-14.3,16.8-22.6l38,38l-14.9,59.8c-1.1,4.5-0.1,9.2,2.7,12.9c2.8,3.6,7.2,5.8,11.8,5.8h19.2
		c-1.9,15.8-6.9,25.4-12.5,36.2c-7.8,15.1-16.7,32.3-16.7,65c0,32.7,8.9,49.9,16.7,65.1c1.3,2.5,2.5,4.8,3.6,7.2
		c2.6,5.3,7.9,8.4,13.5,8.4c2.2,0,4.4-0.5,6.6-1.5c7.4-3.6,10.5-12.6,6.9-20.1c-1.3-2.7-2.7-5.3-4-7.8
		c-7.2-13.9-13.3-25.9-13.3-51.3c0-25.4,6.2-37.4,13.3-51.3c6.5-12.6,13.8-26.7,16-50h20.7c4.6,0,9-2.1,11.8-5.8
		c2.8-3.6,3.8-8.4,2.7-12.9l-14.9-59.8l87.5-87.5C502,146,512,121.8,512,96.1L512,96.1z M140.4,348.3c2.8,2.5,6.3,3.7,9.9,3.7
		s7-1.3,9.9-3.7L166,372h-31.6L140.4,348.3z M251.1,214.9L150.3,315.8L49.4,214.9C36.9,202.4,30,185.8,30,168.1
		c0-17.7,6.9-34.3,19.4-46.8c24.8-24.8,64.8-25.9,90.9-2.6c5.7,5.1,14.3,5.1,20,0c14.2-12.7,32.8-18.5,51.4-16.4
		c1.5,23.3,11.3,45,28,61.7l26.8,26.8C263.2,199.9,258,208.1,251.1,214.9L251.1,214.9z M346,300l5.9-23.7c2.8,2.5,6.3,3.7,9.9,3.7
		s7-1.3,9.9-3.7l5.9,23.7H346z M462.6,142.9L361.7,243.8L260.9,142.9c-12.5-12.5-19.4-29.1-19.4-46.8c0-17.7,6.9-34.3,19.4-46.8
		C273.7,36.5,290.7,30,307.7,30c15.7,0,31.5,5.6,44.1,16.8c5.7,5.1,14.3,5.1,20,0c26.1-23.4,66-22.3,90.9,2.6
		C475.1,61.9,482,78.5,482,96.1C482,113.8,475.1,130.4,462.6,142.9z"/>
</g>
</svg>
